<svg width="514" height="514" viewBox="0 0 514 514" fill="none" xmlns="http://www.w3.org/2000/svg">
<circle cx="257" cy="257" r="249.5" fill="white" stroke="#181A18" stroke-width="15"/>
<rect x="284" y="134" width="15" height="250" transform="rotate(15 284 134)" fill="#181A18"/>
<path d="M151.919 211.544V249.992L188.783 211.544H212.111L170.927 253.592L214.847 305H192.815L159.551 265.4L151.919 273.176V305H134.783V211.544H151.919Z" fill="black"/>
<path d="M363.582 237.32C362.046 229.16 356.286 225.08 346.302 225.08C341.406 225.08 337.566 226.088 334.782 228.104C332.094 230.024 330.75 232.376 330.75 235.16C330.75 237.944 331.614 240.152 333.342 241.784C335.166 243.32 337.95 244.76 341.694 246.104L361.998 254.024C368.91 256.712 374.238 260.12 377.982 264.248C381.726 268.28 383.598 273.368 383.598 279.512C383.598 287.96 380.43 294.68 374.094 299.672C367.758 304.568 358.734 307.016 347.022 307.016C336.654 307.016 328.254 304.472 321.822 299.384C314.622 293.816 310.83 285.944 310.446 275.768H327.294C327.294 283.448 331.278 288.296 339.246 290.312C341.646 290.984 344.814 291.32 348.75 291.32C352.686 291.32 356.334 290.36 359.694 288.44C363.054 286.424 364.734 283.784 364.734 280.52C364.734 277.16 363.822 274.616 361.998 272.888C360.174 271.064 357.198 269.384 353.07 267.848L334.494 260.504C327.294 257.72 321.774 254.456 317.934 250.712C314.094 246.968 312.174 241.784 312.174 235.16C312.174 227.384 315.198 221.24 321.246 216.728C327.39 212.024 335.694 209.672 346.158 209.672C356.718 209.672 364.83 212.12 370.494 217.016C376.254 221.816 379.566 228.584 380.43 237.32H363.582Z" fill="black"/>
</svg>
